<svg xmlns="http://www.w3.org/2000/svg" xmlns:xlink="http://www.w3.org/1999/xlink"><defs>
<filter id="filter0_ii_8_31" x="-3" y="-1" width="34.9988" height="52" filterUnits="userSpaceOnUse" color-interpolation-filters="sRGB">
<feFlood flood-opacity="0" result="BackgroundImageFix"/>
<feBlend mode="normal" in="SourceGraphic" in2="BackgroundImageFix" result="shape"/>
<feColorMatrix in="SourceAlpha" type="matrix" values="0 0 0 0 0 0 0 0 0 0 0 0 0 0 0 0 0 0 127 0" result="hardAlpha"/>
<feOffset dx="-3" dy="-1"/>
<feGaussianBlur stdDeviation="2"/>
<feComposite in2="hardAlpha" operator="arithmetic" k2="-1" k3="1"/>
<feColorMatrix type="matrix" values="0 0 0 0 0 0 0 0 0 0 0 0 0 0 0 0 0 0 0.12 0"/>
<feBlend mode="normal" in2="shape" result="effect1_innerShadow_8_31"/>
<feColorMatrix in="SourceAlpha" type="matrix" values="0 0 0 0 0 0 0 0 0 0 0 0 0 0 0 0 0 0 127 0" result="hardAlpha"/>
<feOffset dx="5" dy="1"/>
<feGaussianBlur stdDeviation="2"/>
<feComposite in2="hardAlpha" operator="arithmetic" k2="-1" k3="1"/>
<feColorMatrix type="matrix" values="0 0 0 0 1 0 0 0 0 1 0 0 0 0 1 0 0 0 0.21 0"/>
<feBlend mode="normal" in2="effect1_innerShadow_8_31" result="effect2_innerShadow_8_31"/>
</filter>

<filter id="filter0_i_8_38" x="0" y="-3.8147e-06" width="31.9988" height="51" filterUnits="userSpaceOnUse" color-interpolation-filters="sRGB">
<feFlood flood-opacity="0" result="BackgroundImageFix"/>
<feBlend mode="normal" in="SourceGraphic" in2="BackgroundImageFix" result="shape"/>
<feColorMatrix in="SourceAlpha" type="matrix" values="0 0 0 0 0 0 0 0 0 0 0 0 0 0 0 0 0 0 127 0" result="hardAlpha"/>
<feOffset dx="5" dy="1"/>
<feGaussianBlur stdDeviation="2"/>
<feComposite in2="hardAlpha" operator="arithmetic" k2="-1" k3="1"/>
<feColorMatrix type="matrix" values="0 0 0 0 0 0 0 0 0 0 0 0 0 0 0 0 0 0 0.21 0"/>
<feBlend mode="normal" in2="shape" result="effect1_innerShadow_8_38"/>
</filter>
<style>.cls-1{fill:#210000;}</style><style>.cls-1{fill:#fff;}</style><style>.cls-1{fill:#272835;}</style></defs><symbol id="aprove" viewBox="0 0 24 24"><g color="#fff" fill="none" stroke="#fff" stroke-linecap="square" stroke-linejoin="miter" stroke-width="1"><title id="circleOkIconTitle"/><polyline points="7 13 10 16 17 9"/><circle cx="12" cy="12" r="10"/></g></symbol><symbol id="arrowMoreActive" viewBox="0 0 28 50"><g fill="none">
<g filter="url(#filter0_ii_8_31)">
<path d="M3 3C10.4449 10.2205 25.2671 24.7292 24.9963 25C24.7256 25.2708 10.2193 39.7795 3 47" stroke="#FF8208" stroke-width="6" stroke-linecap="round" stroke-linejoin="round"/>
</g>

</g></symbol><symbol id="arrowMoreDefault" viewBox="0 0 28 50"><g fill="none">
<g filter="url(#filter0_i_8_38)">
<path d="M3 3C10.4449 10.2205 25.2671 24.7292 24.9963 25C24.7256 25.2708 10.2193 39.7795 3 47" stroke="#FF8208" stroke-width="6" stroke-linecap="round" stroke-linejoin="round"/>
</g>

</g></symbol><symbol id="arrowMoreSimple" viewBox="0 0 53 24"><g fill="#FEB701">
<path d="M52.0544 13.0607C52.6402 12.4749 52.6402 11.5251 52.0544 10.9393L42.5085 1.3934C41.9227 0.807611 40.973 0.807611 40.3872 1.3934C39.8014 1.97919 39.8014 2.92893 40.3872 3.51472L48.8725 12L40.3872 20.4853C39.8014 21.0711 39.8014 22.0208 40.3872 22.6066C40.973 23.1924 41.9227 23.1924 42.5085 22.6066L52.0544 13.0607ZM0.993774 13.5H50.9938V10.5H0.993774V13.5Z" fill="#FF710B"/>
</g></symbol><symbol id="close copy" viewBox="0 0 24 24"><g fill="none">
<path d="M4.34313 19.6569L12 12M19.6568 4.34314L12 12M12 12L4.34313 4.34315M12 12L19.6568 19.6569" stroke="#2288DD" stroke-width="2" stroke-linecap="round" stroke-linejoin="round"/>
</g></symbol><symbol id="close" viewBox="0 0 24 24"><g fill="none">
<path d="M4.34313 19.6569L12 12M19.6568 4.34314L12 12M12 12L4.34313 4.34315M12 12L19.6568 19.6569" stroke="#2288DD" stroke-width="2" stroke-linecap="round" stroke-linejoin="round"/>
</g></symbol><symbol id="logo" viewBox="0 0 233.44 247.5"><g id="Layer_4" data-name="Layer 4"><g id="_logo5" data-name="&#xa0;logo5"><polygon class="cls-1" points="38.11 190.71 80.78 143.72 80.78 190.71 102.08 190.7 179.26 112.11 106.94 112.11 140.35 120.72 102.08 158.36 102.08 112.18 80.96 112.11 38.11 159.11 38.11 138.88 80.78 92.75 102.08 105.27 102.08 45.74 16.63 133.39 16.63 190.71 38.11 190.71"/><path class="cls-1" d="M106.94,190.7H207v-17H147.58l14.64-14.24H207V143.38H176.17l14.52-14.86c.14-.14,16.34,0,16.34,0V112.11h-21Z"/><path class="cls-1" d="M106.94,45.74v59.53H207Zm14.8,25.54L157,92H121.74Z"/></g></g></symbol><symbol id="logoWhite" viewBox="0 0 233.44 247.5"><g fill="#fff"><g id="Layer_4" data-name="Layer 4"><g id="_logo5" data-name="&#xa0;logo5"><polygon class="cls-1" points="41.58 188.41 84.24 141.42 84.24 188.41 105.55 188.41 182.72 109.81 110.41 109.81 143.82 118.42 105.55 156.06 105.55 109.88 84.43 109.81 41.58 156.81 41.58 136.59 84.24 90.45 105.55 102.97 105.55 43.44 20.1 131.09 20.1 188.41 41.58 188.41"/><path class="cls-1" d="M110.41,188.41H210.49v-17H151.05l14.64-14.23h44.8v-16H179.64l14.52-14.87c.14-.14,16.33,0,16.33,0V109.81h-21Z"/><path class="cls-1" d="M110.41,43.44V103H210.49ZM125.21,69l35.24,20.75H125.21Z"/></g></g></g></symbol><symbol id="profile" viewBox="0 0 64 64"><title>6-Profile</title><g id="_6-Profile" data-name="6-Profile"><path class="cls-1" d="M32,0A32,32,0,1,0,64,32,32,32,0,0,0,32,0Zm0,62a29.88,29.88,0,0,1-20.37-8H52.37A29.88,29.88,0,0,1,32,62ZM29.82,21h4.36A3.55,3.55,0,0,0,37,22.91V24c0,2.77-1.31,6-5,6s-5-3.23-5-6V22.91A3.55,3.55,0,0,0,29.82,21ZM27,20.86V16.47A8.31,8.31,0,0,1,32,15a8.31,8.31,0,0,1,5,1.47v4.39c-.5-.13-1-.38-1-.86a1,1,0,0,0-1-1H29a1,1,0,0,0-1,1C28,20.47,27.5,20.72,27,20.86Zm7.84,11.89L32,35.59l-2.84-2.84.38-1.19a7,7,0,0,0,4.9,0ZM31,37.41V41h2V37.41l3.25-3.25,6,2.61L43,38.24V52H40V47H38v5H26V47H24v5H21V38.24l.73-1.46,6-2.61ZM54.34,52H45V38a1,1,0,0,0-.11-.45l-1-2a1,1,0,0,0-.5-.47l-6.63-2.87-.54-1.67A8.2,8.2,0,0,0,39,24V16a1,1,0,0,0-.29-.71A9.73,9.73,0,0,0,32,13a9.73,9.73,0,0,0-6.71,2.29A1,1,0,0,0,25,16v8a8.2,8.2,0,0,0,2.77,6.54l-.54,1.67L20.6,35.08a1,1,0,0,0-.5.47l-1,2A1,1,0,0,0,19,38V52H9.66a30,30,0,1,1,44.67,0Z"/><path class="cls-1" d="M57,31A25,25,0,0,0,7,31H9a23,23,0,0,1,46,0Z"/><rect class="cls-1" x="7" y="33" width="2" height="2"/><rect class="cls-1" x="55" y="33" width="2" height="2"/></g></symbol><symbol id="rouble" viewBox="-1 0 24 24"><path d="m17.778 7.449c.002-.043.003-.093.003-.143 0-1.028-.425-1.956-1.11-2.618l-.001-.001c-.717-.658-1.678-1.061-2.732-1.061-.064 0-.128.002-.191.004h.009-5.454v7.636h5.454c.054.003.118.004.182.004 1.054 0 2.015-.403 2.735-1.064l-.003.003c.685-.663 1.111-1.591 1.111-2.619 0-.05-.001-.1-.003-.149v.007zm4.04 0c.003.076.005.164.005.253 0 2.006-.829 3.819-2.163 5.115l-.002.002c-1.371 1.292-3.224 2.086-5.262 2.086-.107 0-.213-.002-.319-.006h.015-5.795v2.011h8.608.021c.29 0 .525.235.525.525v.022-.001 2.182.021c0 .29-.235.525-.525.525-.007 0-.015 0-.022 0h.001-8.608v3.273.018c0 .147-.061.28-.16.374-.097.095-.23.154-.377.154-.002 0-.004 0-.007 0h-2.846c-.006 0-.014 0-.021 0-.29 0-.525-.235-.525-.525 0-.007 0-.015 0-.022v.001-3.273h-3.818c-.006 0-.014 0-.021 0-.29 0-.525-.235-.525-.525 0-.007 0-.015 0-.022v.001-2.182c0-.006 0-.014 0-.021 0-.29.235-.525.525-.525h.022-.001 3.818v-2.011h-3.818c-.006 0-.014 0-.021 0-.29 0-.525-.235-.525-.525 0-.007 0-.015 0-.022v.001-2.54c0-.002 0-.004 0-.006 0-.147.059-.28.154-.377.094-.099.227-.16.374-.16h.019-.001 3.818v-10.72c0-.006 0-.014 0-.021 0-.29.235-.525.525-.525h.022-.001 9.187c.091-.004.197-.006.304-.006 2.038 0 3.891.794 5.266 2.09l-.004-.004c1.334 1.297 2.162 3.109 2.162 5.114 0 .088-.002.176-.005.264v-.013z"/></symbol><symbol id="step1" viewBox="0 0 419 511.68"><g shape-rendering="geometricPrecision" text-rendering="geometricPrecision" image-rendering="optimizeQuality" fill-rule="evenodd" clip-rule="evenodd"><path d="M314.98 303.63c57.47 0 104.02 46.58 104.02 104.02 0 57.47-46.58 104.03-104.02 104.03-57.47 0-104.03-46.58-104.03-104.03 0-57.47 46.59-104.02 104.03-104.02zM93 39.4h46.13C141.83 17.18 159.77 0 181.52 0c21.62 0 39.45 16.95 42.34 38.94l46.76.46c2.61 0 4.7 2.1 4.7 4.71v51.85c0 2.6-2.09 4.7-4.7 4.7H93.05c-2.56 0-4.71-2.1-4.71-4.7V44.11C88.3 41.5 90.4 39.4 93 39.4zM41.72 59.28h23.94v24.38H41.72c-4.76 0-9.11 1.95-12.24 5.09-3.14 3.13-5.1 7.48-5.1 12.24v315.53c0 4.76 1.96 9.1 5.1 12.24 3.12 3.16 7.47 5.12 12.24 5.12h142.62c1.68 8.44 4.18 16.6 7.37 24.38H41.72c-11.4 0-21.85-4.72-29.44-12.3C4.72 438.44 0 428 0 416.52V100.99c0-11.48 4.7-21.92 12.25-29.47 7.55-7.55 18-12.24 29.47-12.24zm297.56 217.36V100.99c0-4.52-1.76-8.67-4.61-11.75l-.51-.48c-3.15-3.14-7.48-5.1-12.24-5.1h-23.91V59.28h23.91c11.48 0 21.92 4.71 29.46 12.26l.72.78c7.15 7.51 11.56 17.64 11.56 28.67V283.6c-7.8-3.06-15.95-5.41-24.38-6.96zm-206.75-8.06c-7.13 0-12.92-5.79-12.92-12.93 0-7.13 5.79-12.92 12.92-12.92h142.82c7.14 0 12.93 5.79 12.93 12.92 0 7.14-5.79 12.93-12.93 12.93H132.53zM89.5 241.22c7.98 0 14.43 6.46 14.43 14.44 0 7.98-6.45 14.44-14.43 14.44-7.98 0-14.44-6.46-14.44-14.44 0-7.98 6.46-14.44 14.44-14.44zm0 78.62c7.98 0 14.43 6.47 14.43 14.44s-6.45 14.44-14.43 14.44c-7.98 0-14.44-6.47-14.44-14.44s6.46-14.44 14.44-14.44zm43.04 27.36c-7.13 0-12.93-5.79-12.93-12.93 0-7.13 5.8-12.92 12.93-12.92h80.96a133.654 133.654 0 0 0-17.27 25.85h-63.69zM89.5 162.61c7.98 0 14.43 6.46 14.43 14.44 0 7.98-6.45 14.44-14.43 14.44-7.98 0-14.44-6.46-14.44-14.44 0-7.98 6.46-14.44 14.44-14.44zm43.03 27.36c-7.13 0-12.92-5.8-12.92-12.93s5.79-12.93 12.92-12.93h142.82c7.14 0 12.93 5.8 12.93 12.93s-5.79 12.93-12.93 12.93H132.53zm48.5-169.81c12.3 0 22.26 9.97 22.26 22.27 0 12.29-9.96 22.26-22.26 22.26s-22.27-9.97-22.27-22.26c0-12.3 9.97-22.27 22.27-22.27zm103.62 367.48 19.48 18.45 38.62-39.2c3.6-3.67 5.85-6.59 10.31-2.03l14.42 14.76c4.73 4.67 4.48 7.4.02 11.78l-55.16 54.19c-9.39 9.23-7.77 9.81-17.3.32l-34.68-34.48c-1.96-2.15-1.75-4.33.39-6.5l16.73-17.32c2.54-2.64 4.56-2.47 7.17.03z"/></g></symbol><symbol id="step2" viewBox="0 0 419 511.68"><g shape-rendering="geometricPrecision" text-rendering="geometricPrecision" image-rendering="optimizeQuality" fill-rule="evenodd" clip-rule="evenodd"><path d="M93 39.4h46.12C141.84 17.18 159.77 0 181.52 0c21.62 0 39.45 16.95 42.34 38.94l46.76.46c2.6 0 4.7 2.1 4.7 4.71v51.85c0 2.6-2.1 4.69-4.7 4.69H93.05c-2.56 0-4.71-2.09-4.71-4.69V44.11A4.644 4.644 0 0 1 93 39.4zm221.98 264.23c57.47 0 104.02 46.58 104.02 104.02 0 57.47-46.58 104.03-104.02 104.03-57.48 0-104.02-46.59-104.02-104.03 0-57.48 46.58-104.02 104.02-104.02zm-8.43 151.98 8.62-43.82 8.75 13.18c18.82-7.56 29.39-20.02 30.96-39.2 15.46 27.04 6.07 51.27-13.51 65.47l8.91 13.43-43.73-9.06zm16.85-95.93-8.62 43.81-8.75-13.17c-18.83 7.56-29.39 20.02-30.96 39.2-15.46-27.03-6.06-51.26 13.52-65.47l-8.92-13.43 43.73 9.06zM41.73 59.28h23.93v24.38H41.73c-4.77 0-9.12 1.96-12.25 5.09-3.14 3.14-5.1 7.48-5.1 12.24v315.53c0 4.77 1.95 9.13 5.08 12.27 3.15 3.12 7.5 5.09 12.27 5.09h142.61c1.69 8.43 4.18 16.6 7.37 24.38H41.73c-11.41 0-21.86-4.71-29.42-12.27C4.72 438.38 0 427.96 0 416.52V100.99c0-11.48 4.7-21.91 12.25-29.46 7.55-7.55 17.99-12.25 29.48-12.25zm297.55 217.36V100.99c0-4.76-1.97-9.11-5.09-12.26-3.15-3.12-7.49-5.07-12.27-5.07h-23.91V59.28h23.91c11.44 0 21.85 4.71 29.42 12.25 7.6 7.61 12.31 18.05 12.31 29.46V283.6c-7.78-3.06-15.94-5.41-24.37-6.96zm-206.75-8.06c-7.13 0-12.92-5.8-12.92-12.93s5.79-12.92 12.92-12.92h142.82c7.13 0 12.93 5.79 12.93 12.92s-5.8 12.93-12.93 12.93H132.53zM89.5 241.21c7.97 0 14.44 6.47 14.44 14.44 0 7.98-6.47 14.45-14.44 14.45s-14.44-6.47-14.44-14.45c0-7.97 6.47-14.44 14.44-14.44zm0 78.63c7.97 0 14.44 6.46 14.44 14.43 0 7.98-6.47 14.45-14.44 14.45s-14.44-6.47-14.44-14.45c0-7.97 6.47-14.43 14.44-14.43zm43.04 27.36c-7.13 0-12.93-5.8-12.93-12.93s5.8-12.92 12.93-12.92h80.96a133.608 133.608 0 0 0-17.26 25.85h-63.7zM89.5 162.61c7.97 0 14.44 6.46 14.44 14.44 0 7.97-6.47 14.43-14.44 14.43s-14.44-6.46-14.44-14.43c0-7.98 6.47-14.44 14.44-14.44zm43.03 27.35c-7.13 0-12.92-5.79-12.92-12.92s5.79-12.93 12.92-12.93h142.82c7.13 0 12.93 5.8 12.93 12.93s-5.8 12.92-12.93 12.92H132.53zm48.5-169.8c12.3 0 22.26 9.97 22.26 22.27 0 12.29-9.96 22.25-22.26 22.25-12.29 0-22.26-9.96-22.26-22.25 0-12.3 9.97-22.27 22.26-22.27z"/></g></symbol><symbol id="telegram" viewBox="0 0 100 100"><g fill="none">
<path d="M70.7373 29.3678C70.7373 29.3678 75.3626 27.5643 74.9772 31.9444C74.8487 33.748 73.6924 40.0605 72.793 46.8883L69.7094 67.1142C69.7094 67.1142 69.4525 70.0772 67.1398 70.5925C64.827 71.1078 61.3581 68.789 60.7156 68.2736C60.2017 67.8872 51.0795 62.0899 47.8674 59.2557C46.968 58.4828 45.9401 56.9368 47.9958 55.1332L61.4866 42.2506C63.0284 40.7047 64.5701 37.0975 58.146 41.4776L40.1585 53.7162C40.1585 53.7162 38.1027 55.0044 34.2483 53.845L25.8969 51.2685C25.8969 51.2685 22.8133 49.3361 28.0811 47.4036C40.9294 41.3487 56.7328 35.165 70.7373 29.3678Z" fill="black"/>
</g></symbol><symbol id="vk" viewBox="0 0 100 100"><g fill="none">
<path d="M52.2328 65.1993C35.1498 65.1993 25.406 53.4878 25 34H33.5572C33.8382 48.3036 40.1466 54.3623 45.1435 55.6115V34H53.2013V46.336C58.1357 45.8051 63.3193 40.1836 65.0682 34H73.1259C71.783 41.6202 66.1615 47.2417 62.164 49.5528C66.1615 51.4266 72.564 56.3298 75 65.1993H66.1302C64.2252 59.2655 59.4786 54.6746 53.2013 54.05V65.1993H52.2328Z" fill="black"/>
</g></symbol><symbol id="whatsApp" viewBox="0 0 100 100"><g fill="none">
<path fill-rule="evenodd" clip-rule="evenodd" d="M50.4832 23C57.7739 23.0027 64.6172 25.841 69.7626 30.9928C74.9089 36.1446 77.7408 42.9915 77.7363 50.2749C77.7299 65.301 65.5029 77.528 50.4823 77.528H50.4714C45.9107 77.5262 41.4282 76.3822 37.4477 74.2105L23 78L26.8668 63.8769C24.4823 59.7446 23.2274 55.0557 23.2292 50.2522C23.2346 35.2252 35.4616 23 50.4832 23ZM50.475 72.9246H50.4841C62.9693 72.9246 73.131 62.7629 73.1356 50.2713C73.1374 44.2183 70.7839 38.5272 66.5069 34.2457C62.23 29.9642 56.5426 27.6043 50.4923 27.6025C37.9979 27.6025 27.8353 37.7633 27.8308 50.2531C27.8289 54.5337 29.0266 58.7015 31.2938 62.3082L31.8322 63.1658L29.5441 71.525L38.118 69.2761L38.9455 69.7671C42.4231 71.8306 46.4099 72.9228 50.475 72.9246ZM58.2551 53.7435C58.8799 53.9708 62.2274 55.6178 62.9086 55.9588C63.0402 56.0247 63.1633 56.0843 63.2776 56.1395C63.7545 56.3701 64.0764 56.5258 64.2136 56.7554C64.3836 57.0392 64.3836 58.4033 63.8161 59.9938C63.2487 61.5844 60.5286 63.0358 59.22 63.2313C58.046 63.4068 56.5618 63.4796 54.9303 62.9612C53.9409 62.6475 52.6732 62.2291 51.0481 61.5271C44.6615 58.7691 40.3462 52.5782 39.5333 51.4121C39.4767 51.3309 39.4371 51.274 39.415 51.2444L39.4124 51.241C39.062 50.7748 36.634 47.544 36.634 44.2002C36.634 41.0648 38.1735 39.4213 38.8831 38.6637C38.9321 38.6113 38.9772 38.5632 39.0175 38.5191C39.6423 37.837 40.3798 37.667 40.8336 37.667C41.2874 37.667 41.7421 37.6706 42.1386 37.6906C42.1876 37.6931 42.2386 37.6928 42.2913 37.6924C42.6883 37.69 43.1828 37.6871 43.671 38.8592C43.8594 39.3119 44.1355 39.984 44.4265 40.6923C45.0118 42.1167 45.6572 43.6877 45.7708 43.9155C45.9409 44.2565 46.0545 44.654 45.8272 45.1087C45.7926 45.1776 45.7607 45.2427 45.7302 45.3049C45.56 45.6516 45.4345 45.9075 45.146 46.2445C45.0328 46.3768 44.9158 46.5194 44.7987 46.662C44.564 46.9478 44.3292 47.2338 44.1248 47.4376C43.7837 47.7769 43.4291 48.1452 43.8265 48.8272C44.2239 49.5084 45.5907 51.7382 47.6151 53.5443C49.7905 55.4855 51.6816 56.3056 52.6406 56.7216C52.8282 56.8029 52.9801 56.8688 53.0915 56.9246C53.7718 57.2656 54.1692 57.2092 54.5666 56.7545C54.964 56.2998 56.269 54.7666 56.7228 54.0845C57.1766 53.4024 57.6313 53.5161 58.2551 53.7435Z" fill="black"/>
</g></symbol></svg>