<svg xmlns="http://www.w3.org/2000/svg" xmlns:xlink="http://www.w3.org/1999/xlink"><defs><style>.cls-1{fill:#f27921;}</style><style>.cls-1{fill:#272835;}</style></defs><symbol id="aprove" viewBox="0 0 24 24"><g color="#fff" fill="none" stroke="#fff" stroke-linecap="square" stroke-linejoin="miter" stroke-width="1"><title id="circleOkIconTitle"/><polyline points="7 13 10 16 17 9"/><circle cx="12" cy="12" r="10"/></g></symbol><symbol id="close copy" viewBox="0 0 24 24"><g fill="none">
<path d="M4.34313 19.6569L12 12M19.6568 4.34314L12 12M12 12L4.34313 4.34315M12 12L19.6568 19.6569" stroke="#2288DD" stroke-width="2" stroke-linecap="round" stroke-linejoin="round"/>
</g></symbol><symbol id="close" viewBox="0 0 24 24"><g fill="none">
<path d="M4.34313 19.6569L12 12M19.6568 4.34314L12 12M12 12L4.34313 4.34315M12 12L19.6568 19.6569" stroke="#2288DD" stroke-width="2" stroke-linecap="round" stroke-linejoin="round"/>
</g></symbol><symbol id="logo" viewBox="0 0 233.44 247.5"><g fill="#f27921"><g id="Layer_4" data-name="Layer 4"><g id="_logo5" data-name="&#xa0;logo5"><polygon class="cls-1" points="43 196.24 85.67 149.25 85.67 196.24 106.97 196.24 184.15 117.64 111.83 117.64 145.24 126.25 106.97 163.89 106.97 117.71 85.85 117.64 43 164.64 43 144.41 85.67 98.28 106.97 110.8 106.97 51.27 21.52 138.92 21.52 196.24 43 196.24"/><path class="cls-1" d="M111.83,196.24H211.92v-17H152.47L167.11,165h44.81v-16H181.06l14.52-14.87c.14-.14,16.34,0,16.34,0V117.64H191Z"/><path class="cls-1" d="M111.83,51.27V110.8H211.92Zm12.6,21.85L170.6,99.81H124.43Z"/></g></g></g></symbol><symbol id="profile" viewBox="0 0 64 64"><title>6-Profile</title><g id="_6-Profile" data-name="6-Profile"><path class="cls-1" d="M32,0A32,32,0,1,0,64,32,32,32,0,0,0,32,0Zm0,62a29.88,29.88,0,0,1-20.37-8H52.37A29.88,29.88,0,0,1,32,62ZM29.82,21h4.36A3.55,3.55,0,0,0,37,22.91V24c0,2.77-1.31,6-5,6s-5-3.23-5-6V22.91A3.55,3.55,0,0,0,29.82,21ZM27,20.86V16.47A8.31,8.31,0,0,1,32,15a8.31,8.31,0,0,1,5,1.47v4.39c-.5-.13-1-.38-1-.86a1,1,0,0,0-1-1H29a1,1,0,0,0-1,1C28,20.47,27.5,20.72,27,20.86Zm7.84,11.89L32,35.59l-2.84-2.84.38-1.19a7,7,0,0,0,4.9,0ZM31,37.41V41h2V37.41l3.25-3.25,6,2.61L43,38.24V52H40V47H38v5H26V47H24v5H21V38.24l.73-1.46,6-2.61ZM54.34,52H45V38a1,1,0,0,0-.11-.45l-1-2a1,1,0,0,0-.5-.47l-6.63-2.87-.54-1.67A8.2,8.2,0,0,0,39,24V16a1,1,0,0,0-.29-.71A9.73,9.73,0,0,0,32,13a9.73,9.73,0,0,0-6.71,2.29A1,1,0,0,0,25,16v8a8.2,8.2,0,0,0,2.77,6.54l-.54,1.67L20.6,35.08a1,1,0,0,0-.5.47l-1,2A1,1,0,0,0,19,38V52H9.66a30,30,0,1,1,44.67,0Z"/><path class="cls-1" d="M57,31A25,25,0,0,0,7,31H9a23,23,0,0,1,46,0Z"/><rect class="cls-1" x="7" y="33" width="2" height="2"/><rect class="cls-1" x="55" y="33" width="2" height="2"/></g></symbol><symbol id="rouble" viewBox="-1 0 24 24"><path d="m17.778 7.449c.002-.043.003-.093.003-.143 0-1.028-.425-1.956-1.11-2.618l-.001-.001c-.717-.658-1.678-1.061-2.732-1.061-.064 0-.128.002-.191.004h.009-5.454v7.636h5.454c.054.003.118.004.182.004 1.054 0 2.015-.403 2.735-1.064l-.003.003c.685-.663 1.111-1.591 1.111-2.619 0-.05-.001-.1-.003-.149v.007zm4.04 0c.003.076.005.164.005.253 0 2.006-.829 3.819-2.163 5.115l-.002.002c-1.371 1.292-3.224 2.086-5.262 2.086-.107 0-.213-.002-.319-.006h.015-5.795v2.011h8.608.021c.29 0 .525.235.525.525v.022-.001 2.182.021c0 .29-.235.525-.525.525-.007 0-.015 0-.022 0h.001-8.608v3.273.018c0 .147-.061.28-.16.374-.097.095-.23.154-.377.154-.002 0-.004 0-.007 0h-2.846c-.006 0-.014 0-.021 0-.29 0-.525-.235-.525-.525 0-.007 0-.015 0-.022v.001-3.273h-3.818c-.006 0-.014 0-.021 0-.29 0-.525-.235-.525-.525 0-.007 0-.015 0-.022v.001-2.182c0-.006 0-.014 0-.021 0-.29.235-.525.525-.525h.022-.001 3.818v-2.011h-3.818c-.006 0-.014 0-.021 0-.29 0-.525-.235-.525-.525 0-.007 0-.015 0-.022v.001-2.54c0-.002 0-.004 0-.006 0-.147.059-.28.154-.377.094-.099.227-.16.374-.16h.019-.001 3.818v-10.72c0-.006 0-.014 0-.021 0-.29.235-.525.525-.525h.022-.001 9.187c.091-.004.197-.006.304-.006 2.038 0 3.891.794 5.266 2.09l-.004-.004c1.334 1.297 2.162 3.109 2.162 5.114 0 .088-.002.176-.005.264v-.013z"/></symbol><symbol id="step1" viewBox="0 0 419 511.68"><g shape-rendering="geometricPrecision" text-rendering="geometricPrecision" image-rendering="optimizeQuality" fill-rule="evenodd" clip-rule="evenodd"><path d="M314.98 303.63c57.47 0 104.02 46.58 104.02 104.02 0 57.47-46.58 104.03-104.02 104.03-57.47 0-104.03-46.58-104.03-104.03 0-57.47 46.59-104.02 104.03-104.02zM93 39.4h46.13C141.83 17.18 159.77 0 181.52 0c21.62 0 39.45 16.95 42.34 38.94l46.76.46c2.61 0 4.7 2.1 4.7 4.71v51.85c0 2.6-2.09 4.7-4.7 4.7H93.05c-2.56 0-4.71-2.1-4.71-4.7V44.11C88.3 41.5 90.4 39.4 93 39.4zM41.72 59.28h23.94v24.38H41.72c-4.76 0-9.11 1.95-12.24 5.09-3.14 3.13-5.1 7.48-5.1 12.24v315.53c0 4.76 1.96 9.1 5.1 12.24 3.12 3.16 7.47 5.12 12.24 5.12h142.62c1.68 8.44 4.18 16.6 7.37 24.38H41.72c-11.4 0-21.85-4.72-29.44-12.3C4.72 438.44 0 428 0 416.52V100.99c0-11.48 4.7-21.92 12.25-29.47 7.55-7.55 18-12.24 29.47-12.24zm297.56 217.36V100.99c0-4.52-1.76-8.67-4.61-11.75l-.51-.48c-3.15-3.14-7.48-5.1-12.24-5.1h-23.91V59.28h23.91c11.48 0 21.92 4.71 29.46 12.26l.72.78c7.15 7.51 11.56 17.64 11.56 28.67V283.6c-7.8-3.06-15.95-5.41-24.38-6.96zm-206.75-8.06c-7.13 0-12.92-5.79-12.92-12.93 0-7.13 5.79-12.92 12.92-12.92h142.82c7.14 0 12.93 5.79 12.93 12.92 0 7.14-5.79 12.93-12.93 12.93H132.53zM89.5 241.22c7.98 0 14.43 6.46 14.43 14.44 0 7.98-6.45 14.44-14.43 14.44-7.98 0-14.44-6.46-14.44-14.44 0-7.98 6.46-14.44 14.44-14.44zm0 78.62c7.98 0 14.43 6.47 14.43 14.44s-6.45 14.44-14.43 14.44c-7.98 0-14.44-6.47-14.44-14.44s6.46-14.44 14.44-14.44zm43.04 27.36c-7.13 0-12.93-5.79-12.93-12.93 0-7.13 5.8-12.92 12.93-12.92h80.96a133.654 133.654 0 0 0-17.27 25.85h-63.69zM89.5 162.61c7.98 0 14.43 6.46 14.43 14.44 0 7.98-6.45 14.44-14.43 14.44-7.98 0-14.44-6.46-14.44-14.44 0-7.98 6.46-14.44 14.44-14.44zm43.03 27.36c-7.13 0-12.92-5.8-12.92-12.93s5.79-12.93 12.92-12.93h142.82c7.14 0 12.93 5.8 12.93 12.93s-5.79 12.93-12.93 12.93H132.53zm48.5-169.81c12.3 0 22.26 9.97 22.26 22.27 0 12.29-9.96 22.26-22.26 22.26s-22.27-9.97-22.27-22.26c0-12.3 9.97-22.27 22.27-22.27zm103.62 367.48 19.48 18.45 38.62-39.2c3.6-3.67 5.85-6.59 10.31-2.03l14.42 14.76c4.73 4.67 4.48 7.4.02 11.78l-55.16 54.19c-9.39 9.23-7.77 9.81-17.3.32l-34.68-34.48c-1.96-2.15-1.75-4.33.39-6.5l16.73-17.32c2.54-2.64 4.56-2.47 7.17.03z"/></g></symbol><symbol id="step2" viewBox="0 0 419 511.68"><g shape-rendering="geometricPrecision" text-rendering="geometricPrecision" image-rendering="optimizeQuality" fill-rule="evenodd" clip-rule="evenodd"><path d="M93 39.4h46.12C141.84 17.18 159.77 0 181.52 0c21.62 0 39.45 16.95 42.34 38.94l46.76.46c2.6 0 4.7 2.1 4.7 4.71v51.85c0 2.6-2.1 4.69-4.7 4.69H93.05c-2.56 0-4.71-2.09-4.71-4.69V44.11A4.644 4.644 0 0 1 93 39.4zm221.98 264.23c57.47 0 104.02 46.58 104.02 104.02 0 57.47-46.58 104.03-104.02 104.03-57.48 0-104.02-46.59-104.02-104.03 0-57.48 46.58-104.02 104.02-104.02zm-8.43 151.98 8.62-43.82 8.75 13.18c18.82-7.56 29.39-20.02 30.96-39.2 15.46 27.04 6.07 51.27-13.51 65.47l8.91 13.43-43.73-9.06zm16.85-95.93-8.62 43.81-8.75-13.17c-18.83 7.56-29.39 20.02-30.96 39.2-15.46-27.03-6.06-51.26 13.52-65.47l-8.92-13.43 43.73 9.06zM41.73 59.28h23.93v24.38H41.73c-4.77 0-9.12 1.96-12.25 5.09-3.14 3.14-5.1 7.48-5.1 12.24v315.53c0 4.77 1.95 9.13 5.08 12.27 3.15 3.12 7.5 5.09 12.27 5.09h142.61c1.69 8.43 4.18 16.6 7.37 24.38H41.73c-11.41 0-21.86-4.71-29.42-12.27C4.72 438.38 0 427.96 0 416.52V100.99c0-11.48 4.7-21.91 12.25-29.46 7.55-7.55 17.99-12.25 29.48-12.25zm297.55 217.36V100.99c0-4.76-1.97-9.11-5.09-12.26-3.15-3.12-7.49-5.07-12.27-5.07h-23.91V59.28h23.91c11.44 0 21.85 4.71 29.42 12.25 7.6 7.61 12.31 18.05 12.31 29.46V283.6c-7.78-3.06-15.94-5.41-24.37-6.96zm-206.75-8.06c-7.13 0-12.92-5.8-12.92-12.93s5.79-12.92 12.92-12.92h142.82c7.13 0 12.93 5.79 12.93 12.92s-5.8 12.93-12.93 12.93H132.53zM89.5 241.21c7.97 0 14.44 6.47 14.44 14.44 0 7.98-6.47 14.45-14.44 14.45s-14.44-6.47-14.44-14.45c0-7.97 6.47-14.44 14.44-14.44zm0 78.63c7.97 0 14.44 6.46 14.44 14.43 0 7.98-6.47 14.45-14.44 14.45s-14.44-6.47-14.44-14.45c0-7.97 6.47-14.43 14.44-14.43zm43.04 27.36c-7.13 0-12.93-5.8-12.93-12.93s5.8-12.92 12.93-12.92h80.96a133.608 133.608 0 0 0-17.26 25.85h-63.7zM89.5 162.61c7.97 0 14.44 6.46 14.44 14.44 0 7.97-6.47 14.43-14.44 14.43s-14.44-6.46-14.44-14.43c0-7.98 6.47-14.44 14.44-14.44zm43.03 27.35c-7.13 0-12.92-5.79-12.92-12.92s5.79-12.93 12.92-12.93h142.82c7.13 0 12.93 5.8 12.93 12.93s-5.8 12.92-12.93 12.92H132.53zm48.5-169.8c12.3 0 22.26 9.97 22.26 22.27 0 12.29-9.96 22.25-22.26 22.25-12.29 0-22.26-9.96-22.26-22.25 0-12.3 9.97-22.27 22.26-22.27z"/></g></symbol></svg>